# xmcd
#
# Track frame offsets:
#	150
#	16453
#	34599
#	52731
#	67132
#	90596
#	105175
#	136251
#	153393
#	181252
#	203979
#	216319
#	232689
#	253382
#	275049
#	290210
#	306960
#	317813
#
# Disc length: 4439 seconds
#
# Revision: 0
# Processed by: cddbd v1.5.2PL0 Copyright (c) Steve Scherf et al.
# Submitted via: EasyCDDAExtractor 11.5.3.1
#
DISCID=06115512
DTITLE=Nina Simone - Mood indigo
DYEAR=2007
DGENRE=Blues
TTITLE0=My baby just cares for me
TTITLE1=I loves you Porgy
TTITLE2=Mood indigo
TTITLE3=Don't smoke in bed
TTITLE4=Ne me quitte pas
TTITLE5=To love somebody
TTITLE6=House of the rising sun
TTITLE7=Don't let me be understood
TTITLE8=Ain't got no/I got life
TTITLE9=To be young, gifted and black
TTITLE10=Backlash blues
TTITLE11=Do what you gotta do
TTITLE12=Mississippi goddam
TTITLE13=Four women
TTITLE14=I want a little sugar in my bowl
TTITLE15=Cotton eyed Joe
TTITLE16=Sunday in Savannah
TTITLE17=I sing just to know that I'm alive
EXTD=
EXTT0=
EXTT1=
EXTT2=
EXTT3=
EXTT4=
EXTT5=
EXTT6=
EXTT7=
EXTT8=
EXTT9=
EXTT10=
EXTT11=
EXTT12=
EXTT13=
EXTT14=
EXTT15=
EXTT16=
EXTT17=
PLAYORDER=
